<?xml version="1.0" encoding="UTF-8"?>
<svg xmlns="http://www.w3.org/2000/svg" width="1200" height="1200" viewBox="0 0 1024 1024" role="img" aria-label="Engineering emblem: helmet above boots">
  <!--
    Emblem logo: helmet on top of a pair of safety boots.
    Paths use `fill="currentColor"` so you can control color via CSS (or use the `fill` property directly).
    Background is transparent.
  -->
  <g id="emblem" fill="currentColor" stroke="none" transform="translate(0,0)">
    <!-- Helmet (top) -->
    <path d="M160 320c0-88 120-160 352-160s352 72 352 160c0 26-6 50-18 72-8 14-38 32-70 38-64 12-142 16-226 16s-162-4-226-16c-32-6-62-24-70-38-12-22-18-46-18-72zM256 352c36 6 90 12 170 14 14 0 28 0 42 0 86 0 156-6 196-14 8-2 14-6 18-10 6-6 10-12 12-18-40-20-110-42-268-42s-228 22-268 42c2 6 6 12 12 18 4 4 10 8 18 10z" />
    <!-- Helmet brim -->
    <path d="M128 416c0 8 6 16 14 18 62 18 154 34 326 34s264-16 326-34c8-2 14-10 14-18 0-8-6-16-14-18-64-20-156-36-326-36s-262 16-326 36c-8 2-14 10-14 18z" />
    <!-- Boots (pair) -->
    <!-- Left boot -->
    <path d="M220 620c-12 28-28 86-28 138 0 62 54 112 120 112 18 0 36-4 52-12 18-8 34-20 48-32 16-14 36-24 58-30 12-4 24-8 36-10 12-2 24-2 36 0 12 2 24 6 36 10 22 6 42 16 58 30 14 12 30 24 48 32 16 8 34 12 52 12 66 0 120-50 120-112 0-52-16-110-28-138-18-42-36-56-66-72-18-10-42-6-62 4-18 8-28 24-42 42-18 22-44 38-88 38s-70-16-88-38c-14-18-24-34-42-42-20-10-44-14-62-4-30 16-48 30-66 72z" />
    <!-- Right boot (slightly behind, offset) -->
    <path d="M568 620c-12 28-28 86-28 138 0 62 54 112 120 112 18 0 36-4 52-12 18-8 34-20 48-32 16-14 36-24 58-30 12-4 24-8 36-10 12-2 24-2 36 0 12 2 24 6 36 10 22 6 42 16 58 30 14 12 30 24 48 32 16 8 34 12 52 12 66 0 120-50 120-112 0-52-16-110-28-138-18-42-36-56-66-72-18-10-42-6-62 4-18 8-28 24-42 42-18 22-44 38-88 38s-70-16-88-38c-14-18-24-34-42-42-20-10-44-14-62-4-30 16-48 30-66 72z" />
    <!-- Laces / details on left boot -->
    <path d="M280 700c22-4 44-6 66-6 28 0 54 4 78 12M260 760c30-6 62-8 92-6 26 2 50 8 72 18" fill="none" stroke="currentColor" stroke-width="18" stroke-linecap="round" stroke-linejoin="round" />
    <!-- Laces / details on right boot -->
    <path d="M720 700c22-4 44-6 66-6 28 0 54 4 78 12M700 760c30-6 62-8 92-6 26 2 50 8 72 18" fill="none" stroke="currentColor" stroke-width="18" stroke-linecap="round" stroke-linejoin="round" />
    <!-- Outline accents (subtle) -->
    <path d="M200 540c60 40 220 40 312 40s252 0 312-40" fill="none" stroke="currentColor" stroke-width="10" stroke-linecap="round" stroke-linejoin="round" opacity="0.8" />
  </g>
</svg>
